<svg width="18" height="18" viewBox="0 0 18 18" fill="none" xmlns="http://www.w3.org/2000/svg">
<g clip-path="url(#clip0_461_479)">
<path d="M9.01098 0.225006C9.67158 0.23262 10.3296 0.30894 10.9743 0.452742C11.2558 0.515517 11.4663 0.750165 11.4982 1.03677L11.6514 2.41094C11.7208 3.04188 12.2535 3.51976 12.8885 3.52043C13.0593 3.5207 13.2281 3.48515 13.3859 3.41535L14.6464 2.86161C14.9086 2.74644 15.215 2.80923 15.4106 3.01826C16.3216 3.99118 17 5.15804 17.3949 6.43103C17.4801 6.70553 17.3821 7.00383 17.1508 7.17436L16.0334 7.99795C15.7146 8.23213 15.5264 8.60401 15.5264 8.99956C15.5264 9.39502 15.7146 9.7669 16.0341 10.0016L17.1524 10.8255C17.3838 10.9959 17.4819 11.2943 17.3967 11.5689C17.002 12.8417 16.3239 14.0084 15.4135 14.9815C15.218 15.1905 14.9119 15.2535 14.6498 15.1385L13.3841 14.5841C13.0219 14.4256 12.6061 14.4488 12.2639 14.6466C11.9217 14.8443 11.694 15.1931 11.6505 15.5859L11.4983 16.96C11.4669 17.2433 11.261 17.4764 10.9836 17.5424C9.68004 17.8525 8.32185 17.8525 7.01823 17.5424C6.74092 17.4764 6.53495 17.2433 6.50356 16.96L6.35162 15.588C6.30699 15.1959 6.07891 14.8482 5.73698 14.6511C5.39506 14.454 4.97988 14.4309 4.61898 14.5885L3.35301 15.143C3.0908 15.258 2.78463 15.195 2.5891 14.9858C1.67816 14.0117 1.00007 12.8435 0.605881 11.5693C0.520975 11.2949 0.619075 10.9967 0.850366 10.8264L1.96936 10.002C2.28809 9.7678 2.47632 9.39592 2.47632 9.00046C2.47632 8.60491 2.28809 8.23303 1.96894 7.99858L0.850645 7.17557C0.619021 7.00511 0.520831 6.70661 0.606034 6.43193C1.00091 5.15894 1.67935 3.99208 2.59032 3.01916C2.78603 2.81013 3.09235 2.74734 3.35452 2.86251L4.61486 3.41615C4.97751 3.57531 5.39442 3.55127 5.73819 3.35043C6.08048 3.15189 6.30836 2.8028 6.35235 2.40988L6.50542 1.03677C6.53739 0.750021 6.74807 0.515292 7.02972 0.452652C7.67529 0.309084 8.334 0.232791 9.01098 0.225006ZM8.99973 6.29996C7.50852 6.29996 6.29973 7.5088 6.29973 9.00001C6.29973 10.4911 7.50852 11.7 8.99973 11.7C10.4909 11.7 11.6997 10.4911 11.6997 9.00001C11.6997 7.5088 10.4909 6.29996 8.99973 6.29996Z" fill="#0883D9"/>
</g>
<defs>
<clipPath id="clip0_461_479">
<rect width="18" height="18" fill="white"/>
</clipPath>
</defs>
</svg>
