<svg width="18" height="18" viewBox="0 0 18 18" fill="none" xmlns="http://www.w3.org/2000/svg">
<path d="M3.46385 12.006L1.41972 14.0625L3.46272 16.11L2.66735 16.9054L0.224976 14.4596V13.6643L2.66622 11.2129L3.46385 12.006ZM9.79985 11.2185L9.01235 12.0161L11.0666 14.0625L9.00672 16.11L9.79985 16.9076L12.2625 14.463V13.6654L9.79985 11.2185ZM4.5281 17.2598L5.59685 17.6153L7.84685 10.8653L6.7781 10.5098L4.5281 17.2598Z" fill="#0883D9"/>
<g opacity="0.75">
<path d="M15.5858 4.66425L12.2108 1.28925L11.8125 1.125H2.8125L2.25 1.6875V10.125H3.375V2.25H11.25V5.625H14.625V15.75H12.5618L11.43 16.875H15.1875L15.75 16.3125V5.0625L15.5858 4.66425Z" fill="#0883D9"/>
<path opacity="0.1" d="M15.1875 5.0625V16.3125H11.9959L13.3875 14.931V13.1985L10.125 10.125H2.8125V1.6875H11.8125L15.1875 5.0625Z" fill="#0883D9"/>
</g>
</svg>
